<?xml version="1.0" encoding="UTF-8" standalone="no"?>
<!DOCTYPE svg PUBLIC "-//W3C//DTD SVG 1.1//EN" "http://www.w3.org/Graphics/SVG/1.1/DTD/svg11.dtd">
<svg width="100%" height="100%" viewBox="0 0 24 24" version="1.1" xmlns="http://www.w3.org/2000/svg" xmlns:xlink="http://www.w3.org/1999/xlink" xml:space="preserve" xmlns:serif="http://www.serif.com/" style="fill-rule:evenodd;clip-rule:evenodd;stroke-linecap:round;stroke-linejoin:round;">
    <path d="M13.875,18.825C13.257,18.942 12.629,19 12,19C7.522,19 3.732,16.057 2.457,12C2.8,10.908 3.329,9.883 4.02,8.971M9.878,9.879C10.44,9.317 11.204,9 12,9C13.645,9 15,10.355 15,12C15,12.796 14.683,13.56 14.121,14.122M9.878,9.878L14.12,14.12M9.88,9.88L6.59,6.59M14.122,14.122L17.412,17.412M3,3L6.59,6.59M6.59,6.59C8.202,5.55 10.081,4.997 12,5C16.478,5 20.268,7.943 21.543,12C20.839,14.23 19.377,16.145 17.411,17.411M17.411,17.411L21,21" style="fill:none;fill-rule:nonzero;stroke:rgb(204,204,204);stroke-width:2px;"/>
</svg>
